<?xml version="1.0" encoding="UTF-8" standalone="no"?>
<!-- Created with Inkscape (http://www.inkscape.org/) -->

<svg
   xmlns:dc="http://purl.org/dc/elements/1.1/"
   xmlns:cc="http://creativecommons.org/ns#"
   xmlns:rdf="http://www.w3.org/1999/02/22-rdf-syntax-ns#"
   xmlns:svg="http://www.w3.org/2000/svg"
   xmlns="http://www.w3.org/2000/svg"
   xmlns:sodipodi="http://sodipodi.sourceforge.net/DTD/sodipodi-0.dtd"
   xmlns:inkscape="http://www.inkscape.org/namespaces/inkscape"
   version="1.1"
   id="svg74"
   xml:space="preserve"
   width="148"
   height="46"
   viewBox="0 0 148 46"
   sodipodi:docname="protege-logo.svg"
   inkscape:version="0.92.2 5c3e80d, 2017-08-06"><metadata
     id="metadata80"><rdf:RDF><cc:Work
         rdf:about=""><dc:format>image/svg+xml</dc:format><dc:type
           rdf:resource="http://purl.org/dc/dcmitype/StillImage" /><dc:title></dc:title></cc:Work></rdf:RDF></metadata><defs
     id="defs78"><clipPath
       clipPathUnits="userSpaceOnUse"
       id="clipPath92"><path
         d="M 0,0 H 792 V 612 H 0 Z"
         id="path90"
         inkscape:connector-curvature="0" /></clipPath><clipPath
       clipPathUnits="userSpaceOnUse"
       id="clipPath102"><path
         d="m 67.18316,544.4013 h 31.04902 v -31.049 H 67.18316 Z"
         id="path100"
         inkscape:connector-curvature="0" /></clipPath><clipPath
       clipPathUnits="userSpaceOnUse"
       id="clipPath108"><path
         d="m 67.30588,513.9861 h 30.36358 v 30.30489 H 67.30588 Z"
         id="path106"
         inkscape:connector-curvature="0" /></clipPath><clipPath
       clipPathUnits="userSpaceOnUse"
       id="clipPath128"><path
         d="m 91.51712,508.3724 h 92.36507 v 41.5324 H 91.51712 Z"
         id="path126"
         inkscape:connector-curvature="0" /></clipPath></defs><sodipodi:namedview
     bordercolor="#666666"
     borderopacity="1"
     objecttolerance="10"
     gridtolerance="10"
     guidetolerance="10"
     inkscape:pageopacity="0"
     inkscape:pageshadow="2"
     inkscape:window-width="1216"
     inkscape:window-height="596"
     id="namedview76"
     showgrid="false"
     inkscape:showpageshadow="false"
     inkscape:zoom="3.272102"
     inkscape:cx="19.995402"
     inkscape:cy="26.8705"
     inkscape:window-x="0"
     inkscape:window-y="0"
     inkscape:window-maximized="0"
     inkscape:current-layer="g82" /><g
     id="g82"
     inkscape:groupmode="layer"
     inkscape:label="protege-logo"
     transform="matrix(1.3333333,0,0,-1.3333333,0,46)"><g
       id="g84" /><g
       id="g86"
       transform="matrix(0.14015152,0,0,0.05637255,-0.27128744,0.08827907)"><g
         id="g88"
         clip-path="url(#clipPath92)"><path
           d="M 0,612 H 792 V 0 H 0 Z"
           style="fill:#ffffff;fill-opacity:0;fill-rule:nonzero;stroke:none"
           id="path94"
           inkscape:connector-curvature="0" /></g></g><g
       id="g96"
       transform="translate(-64.5,-511.5)"
       style="stroke-width:1.875;stroke-miterlimit:4;stroke-dasharray:none"><g
         id="g98"
         clip-path="url(#clipPath102)"
         style="stroke-width:1.875;stroke-miterlimit:4;stroke-dasharray:none"><g
           id="g104"
           clip-path="url(#clipPath108)"
           style="stroke-width:1.875;stroke-miterlimit:4;stroke-dasharray:none"><g
             id="g110"
             transform="matrix(0.4851409,0,0,0.4851408,92.18286,529.4653)"
             style="stroke-width:3.8648572;stroke-miterlimit:4;stroke-dasharray:none"><path
               d="m 0,0 c -5.552,-8.387 -15.638,-11.612 -19.242,-9.305 -3.602,2.307 -6.726,6.159 -1.174,14.546 C -14.861,13.628 5.55,28.138 5.55,28.138 5.55,28.138 5.553,8.389 0,0 Z"
               style="fill:none;stroke:#338fc8;stroke-width:3.8648572;stroke-linecap:butt;stroke-linejoin:miter;stroke-miterlimit:4;stroke-dasharray:none;stroke-opacity:1"
               id="path112"
               inkscape:connector-curvature="0" /></g><g
             id="g114"
             transform="matrix(0.4851409,0,0,0.4851408,84.84297,522.4265)"
             style="stroke-width:3.8648572;stroke-miterlimit:4;stroke-dasharray:none"><path
               d="m 0,0 c -5.914,8.146 -5.282,18.557 -1.784,21.012 3.499,2.457 8.289,3.91 14.2,-4.236 5.913,-8.147 12.195,-32.13 12.195,-32.13 0,0 -18.699,7.208 -24.611,15.354 z"
               style="fill:none;stroke:#7b2c93;stroke-width:3.8648572;stroke-linecap:butt;stroke-linejoin:miter;stroke-miterlimit:4;stroke-dasharray:none;stroke-opacity:1"
               id="path116"
               inkscape:connector-curvature="0" /></g><g
             id="g118"
             transform="matrix(0.4851409,0,0,0.4851408,81.61232,536.6139)"
             style="stroke-width:3.8648572;stroke-miterlimit:4;stroke-dasharray:none"><path
               d="m 0,0 c 10.175,0.246 18.586,-6.106 18.691,-10.332 0.106,-4.227 -1.356,-8.941 -11.531,-9.185 -10.174,-0.244 -33.89,8.092 -33.89,8.092 0,0 16.557,11.18 26.73,11.425 z"
               style="fill:none;stroke:#b06b2b;stroke-width:3.8648572;stroke-linecap:butt;stroke-linejoin:miter;stroke-miterlimit:4;stroke-dasharray:none;stroke-opacity:1"
               id="path120"
               inkscape:connector-curvature="0" /></g></g></g></g><g
       id="g122"
       transform="translate(-66,-511.5)"><g
         id="g124"
         clip-path="url(#clipPath128)"><g
           id="g130"
           transform="translate(100,522)"><g
             aria-label="Protégé"
             transform="scale(1,-1)"
             style="font-variant:normal;font-weight:bold;font-size:21px;font-family:Roboto;-inkscape-font-specification:Roboto-Bold;writing-mode:lr-tb;fill:#363737;fill-opacity:1;fill-rule:nonzero;stroke:none"
             id="text134"><path
               d="M 4.4091797,-5.2602539 V 0 H 1.3330078 v -14.929688 h 5.8242188 q 1.6816406,0 2.9531254,0.615235 1.281738,0.615234 1.96875,1.753418 0.687011,1.12793 0.687011,2.5737303 0,2.194336 -1.507324,3.4658203 -1.4970702,1.2612305 -4.152832,1.2612305 z m 0,-2.4916992 h 2.7480469 q 1.2202148,0 1.855957,-0.5742188 0.6459961,-0.5742187 0.6459961,-1.640625 0,-1.0971681 -0.6459961,-1.7739261 -0.6459961,-0.676757 -1.7841797,-0.697265 H 4.4091797 Z"
               id="path3919"
               inkscape:connector-curvature="0" /><path
               d="m 20.917559,-8.315918 q -0.604981,-0.082031 -1.066407,-0.082031 -1.68164,0 -2.204589,1.1381836 V 0 H 14.683184 V -11.094727 H 17.4825 l 0.08203,1.3227543 q 0.89209,-1.5278323 2.471192,-1.5278323 0.492187,0 0.922851,0.133301 z"
               id="path3921"
               inkscape:connector-curvature="0" /><path
               d="m 21.512959,-5.6499023 q 0,-1.6508789 0.635742,-2.9428711 0.635742,-1.2919922 1.825195,-1.9995116 1.199707,-0.70752 2.778809,-0.70752 2.245605,0 3.660644,1.3740237 1.425293,1.3740235 1.589356,3.7324219 l 0.02051,0.7587891 q 0,2.5532226 -1.425293,4.1015625 -1.425293,1.53808593 -3.824707,1.53808593 -2.399414,0 -3.834961,-1.53808593 -1.425292,-1.538086 -1.425292,-4.1835938 z m 2.963378,0.215332 q 0,1.5791015 0.594727,2.4199219 0.594727,0.8305664 1.702148,0.8305664 1.076661,0 1.681641,-0.8203125 0.604981,-0.8305664 0.604981,-2.6455078 0,-1.5483399 -0.604981,-2.3994141 -0.60498,-0.8510742 -1.702148,-0.8510742 -1.086914,0 -1.681641,0.8510742 -0.594727,0.8408203 -0.594727,2.6147461 z"
               id="path3923"
               inkscape:connector-curvature="0" /><path
               d="m 37.395634,-13.822266 v 2.727539 h 1.896972 v 2.1738286 h -1.896972 v 5.5371093 q 0,0.6152344 0.23584,0.881836 0.235839,0.2666015 0.902343,0.2666015 0.492188,0 0.871582,-0.071777 v 2.24560546 q -0.871582,0.26660157 -1.794433,0.26660157 -3.117188,0 -3.178711,-3.14794923 v -5.9780273 h -1.620117 v -2.1738289 h 1.620117 v -2.727539 z"
               id="path3925"
               inkscape:connector-curvature="0" /><path
               d="m 46.050129,0.20507813 q -2.44043,0 -3.978516,-1.49707033 -1.527832,-1.4970703 -1.527832,-3.9887695 v -0.2871094 q 0,-1.6713867 0.645996,-2.9838867 0.645996,-1.3227539 1.825196,-2.0302732 1.189453,-0.717774 2.707031,-0.717774 2.276367,0 3.578613,1.4355472 1.3125,1.4355469 1.3125,4.0708008 v 1.2099609 h -7.064941 q 0.143554,1.0869141 0.861328,1.7431641 0.728027,0.65625 1.835449,0.65625 1.712402,0 2.67627,-1.2407227 l 1.456054,1.6303711 q -0.666504,0.94335938 -1.804687,1.47656251 -1.138184,0.52294922 -2.522461,0.52294922 z M 45.71175,-8.9003906 q -0.881836,0 -1.435547,0.5947265 -0.543457,0.5947266 -0.697265,1.7021485 h 4.12207 v -0.2358399 q -0.02051,-0.984375 -0.533203,-1.5175781 -0.512696,-0.543457 -1.456055,-0.543457 z M 45.978352,-15.75 h 3.22998 L 46.368,-12.571289 h -2.409668 z"
               id="path3927"
               inkscape:connector-curvature="0" /><path
               d="m 51.863518,-5.6293945 q 0,-2.5532227 1.209961,-4.1118164 1.220215,-1.5585941 3.28125,-1.5585941 1.825195,0 2.840332,1.250977 l 0.123047,-1.045899 h 2.686523 v 10.72558637 q 0,1.45605473 -0.666504,2.53271483 -0.65625,1.0766602 -1.855957,1.640625 -1.199707,0.5639649 -2.80957,0.5639649 -1.220215,0 -2.378906,-0.4921875 Q 53.135002,3.394043 52.540276,2.625 l 1.3125,-1.8046875 q 1.107421,1.2407227 2.686523,1.2407227 1.179199,0 1.835449,-0.6357422 0.65625,-0.62548831 0.65625,-1.78417972 v -0.59472656 q -1.02539,1.15869141 -2.696777,1.15869141 -1.999512,0 -3.240234,-1.55859373 -1.230469,-1.5688477 -1.230469,-4.1528321 z m 2.963379,0.215332 q 0,1.5073242 0.60498,2.3686523 0.604981,0.8510743 1.661133,0.8510743 1.353516,0 1.937988,-1.0151368 V -7.875 q -0.594726,-1.0151367 -1.91748,-1.0151367 -1.066406,0 -1.681641,0.871582 -0.60498,0.871582 -0.60498,2.6044922 z"
               id="path3929"
               inkscape:connector-curvature="0" /><path
               d="m 69.387428,0.20507813 q -2.440429,0 -3.978515,-1.49707033 -1.527832,-1.4970703 -1.527832,-3.9887695 v -0.2871094 q 0,-1.6713867 0.645996,-2.9838867 0.645996,-1.3227539 1.825195,-2.0302732 1.189453,-0.717774 2.707031,-0.717774 2.276367,0 3.578614,1.4355472 1.3125,1.4355469 1.3125,4.0708008 v 1.2099609 h -7.064942 q 0.143555,1.0869141 0.861328,1.7431641 0.728028,0.65625 1.83545,0.65625 1.712402,0 2.676269,-1.2407227 l 1.456055,1.6303711 q -0.666504,0.94335938 -1.804688,1.47656251 -1.138183,0.52294922 -2.522461,0.52294922 z M 69.049049,-8.9003906 q -0.881836,0 -1.435546,0.5947265 -0.543458,0.5947266 -0.697266,1.7021485 h 4.12207 v -0.2358399 q -0.02051,-0.984375 -0.533203,-1.5175781 -0.512695,-0.543457 -1.456055,-0.543457 z M 69.315651,-15.75 h 3.22998 l -2.840332,3.178711 h -2.409668 z"
               id="path3931"
               inkscape:connector-curvature="0" /></g></g></g></g></g></svg>